<?xml version="1.0" encoding="UTF-8" standalone="no"?>
<!DOCTYPE svg PUBLIC "-//W3C//DTD SVG 1.1//EN"
 "http://www.w3.org/Graphics/SVG/1.1/DTD/svg11.dtd">
<!-- Generated by graphviz version 2.43.0 (0)
 -->
<!-- Title: BFIHEvidenceFlow Pages: 1 -->
<svg width="1570pt" height="829pt"
 viewBox="0.00 0.00 1570.39 829.00" xmlns="http://www.w3.org/2000/svg" xmlns:xlink="http://www.w3.org/1999/xlink">
<g id="graph0" class="graph" transform="scale(1 1) rotate(0) translate(4 825)">
<title>BFIHEvidenceFlow</title>
<polygon fill="white" stroke="transparent" points="-4,4 -4,-825 1566.39,-825 1566.39,4 -4,4"/>
<text text-anchor="middle" x="781.2" y="-802.6" font-family="Helvetica-Bold,Arial Bold,sans-serif" font-size="18.00">BFIH Analysis of Proposition:</text>
<text text-anchor="middle" x="781.2" y="-782.6" font-family="Helvetica-Bold,Arial Bold,sans-serif" font-size="18.00">&quot;Is coffee good for your health?&quot;</text>
<g id="clust1" class="cluster">
<title>cluster_hypotheses</title>
<path fill="#e8f4f8" stroke="black" stroke-width="2" d="M326,-100C326,-100 512,-100 512,-100 518,-100 524,-106 524,-112 524,-112 524,-699 524,-699 524,-705 518,-711 512,-711 512,-711 326,-711 326,-711 320,-711 314,-705 314,-699 314,-699 314,-112 314,-112 314,-106 320,-100 326,-100"/>
<text text-anchor="middle" x="419" y="-697.4" font-family="Helvetica-Bold,Arial Bold,sans-serif" font-size="12.00">Hypothesis Space (6 explanations)</text>
</g>
<g id="clust2" class="cluster">
<title>cluster_c1</title>
<path fill="#ffe6e6" stroke="black" d="M21.41,-515C21.41,-515 249.59,-515 249.59,-515 255.59,-515 261.59,-521 261.59,-527 261.59,-527 261.59,-655 261.59,-655 261.59,-661 255.59,-667 249.59,-667 249.59,-667 21.41,-667 21.41,-667 15.41,-667 9.41,-661 9.41,-655 9.41,-655 9.41,-527 9.41,-527 9.41,-521 15.41,-515 21.41,-515"/>
<text text-anchor="middle" x="135.5" y="-655" font-family="Helvetica-Bold,Arial Bold,sans-serif" font-size="10.00">C1: Physical Health Benefits</text>
<text text-anchor="middle" x="135.5" y="-644" font-family="Helvetica-Bold,Arial Bold,sans-serif" font-size="10.00">(35 items)</text>
</g>
<g id="clust3" class="cluster">
<title>cluster_c2</title>
<path fill="#fffce6" stroke="black" d="M20,-355C20,-355 251,-355 251,-355 257,-355 263,-361 263,-367 263,-367 263,-495 263,-495 263,-501 257,-507 251,-507 251,-507 20,-507 20,-507 14,-507 8,-501 8,-495 8,-495 8,-367 8,-367 8,-361 14,-355 20,-355"/>
<text text-anchor="middle" x="135.5" y="-495" font-family="Helvetica-Bold,Arial Bold,sans-serif" font-size="10.00">C2: Adverse Health Outcomes</text>
<text text-anchor="middle" x="135.5" y="-484" font-family="Helvetica-Bold,Arial Bold,sans-serif" font-size="10.00">(13 items)</text>
</g>
<g id="clust4" class="cluster">
<title>cluster_c3</title>
<path fill="#fff0e6" stroke="black" d="M23.54,-195C23.54,-195 247.47,-195 247.47,-195 253.47,-195 259.47,-201 259.47,-207 259.47,-207 259.47,-335 259.47,-335 259.47,-341 253.47,-347 247.47,-347 247.47,-347 23.54,-347 23.54,-347 17.54,-347 11.54,-341 11.54,-335 11.54,-335 11.54,-207 11.54,-207 11.54,-201 17.54,-195 23.54,-195"/>
<text text-anchor="middle" x="135.5" y="-335" font-family="Helvetica-Bold,Arial Bold,sans-serif" font-size="10.00">C3: Neurological and Cognitive Effects</text>
<text text-anchor="middle" x="135.5" y="-324" font-family="Helvetica-Bold,Arial Bold,sans-serif" font-size="10.00">(4 items)</text>
</g>
<g id="clust5" class="cluster">
<title>cluster_c4</title>
<path fill="#e6f3ff" stroke="black" d="M26.36,-8C26.36,-8 244.64,-8 244.64,-8 250.64,-8 256.64,-14 256.64,-20 256.64,-20 256.64,-175 256.64,-175 256.64,-181 250.64,-187 244.64,-187 244.64,-187 26.36,-187 26.36,-187 20.36,-187 14.36,-181 14.36,-175 14.36,-175 14.36,-20 14.36,-20 14.36,-14 20.36,-8 26.36,-8"/>
<text text-anchor="middle" x="135.5" y="-175" font-family="Helvetica-Bold,Arial Bold,sans-serif" font-size="10.00">C4: Social, Cultural, and Contextual</text>
<text text-anchor="middle" x="135.5" y="-164" font-family="Helvetica-Bold,Arial Bold,sans-serif" font-size="10.00">Evidence</text>
<text text-anchor="middle" x="135.5" y="-153" font-family="Helvetica-Bold,Arial Bold,sans-serif" font-size="10.00">(5 items)</text>
</g>
<g id="clust6" class="cluster">
<title>cluster_paradigm_compare</title>
<path fill="#f0e6ff" stroke="black" d="M779,-235C779,-235 929.39,-235 929.39,-235 935.39,-235 941.39,-241 941.39,-247 941.39,-247 941.39,-541 941.39,-541 941.39,-547 935.39,-553 929.39,-553 929.39,-553 779,-553 779,-553 773,-553 767,-547 767,-541 767,-541 767,-247 767,-247 767,-241 773,-235 779,-235"/>
<text text-anchor="middle" x="854.2" y="-540.2" font-family="Helvetica-Bold,Arial Bold,sans-serif" font-size="11.00">Cross&#45;Paradigm Comparison</text>
</g>
<!-- h0 -->
<g id="node1" class="node">
<title>h0</title>
<path fill="#e0e0e0" stroke="black" d="M490,-682C490,-682 347,-682 347,-682 341,-682 335,-676 335,-670 335,-670 335,-630 335,-630 335,-624 341,-618 347,-618 347,-618 490,-618 490,-618 496,-618 502,-624 502,-630 502,-630 502,-670 502,-670 502,-676 496,-682 490,-682"/>
<text text-anchor="middle" x="418.5" y="-670" font-family="Helvetica,Arial,sans-serif" font-size="10.00">H0: Other/Unforeseen Alternatives</text>
<text text-anchor="middle" x="418.5" y="-647" font-family="Helvetica,Arial,sans-serif" font-size="10.00">Prior: 0.10</text>
<text text-anchor="middle" x="418.5" y="-636" font-family="Helvetica,Arial,sans-serif" font-size="10.00">Posterior: 0.002</text>
<text text-anchor="middle" x="418.5" y="-625" font-family="Helvetica,Arial,sans-serif" font-size="10.00">Status: WEAK</text>
</g>
<!-- posterior_summary -->
<g id="node11" class="node">
<title>posterior_summary</title>
<path fill="#fff4e6" stroke="black" stroke-width="2" d="M726,-443C726,-443 565,-443 565,-443 559,-443 553,-437 553,-431 553,-431 553,-337 553,-337 553,-331 559,-325 565,-325 565,-325 726,-325 726,-325 732,-325 738,-331 738,-337 738,-337 738,-431 738,-431 738,-437 732,-443 726,-443"/>
<text text-anchor="middle" x="645.5" y="-430.2" font-family="Helvetica,Arial,sans-serif" font-size="11.00">K0 Posteriors</text>
<text text-anchor="middle" x="645.5" y="-405.2" font-family="Helvetica,Arial,sans-serif" font-size="11.00">H3: 77.2%</text>
<text text-anchor="middle" x="645.5" y="-393.2" font-family="Helvetica,Arial,sans-serif" font-size="11.00">H1: 20.4%</text>
<text text-anchor="middle" x="645.5" y="-381.2" font-family="Helvetica,Arial,sans-serif" font-size="11.00">H2: 2.0%</text>
<text text-anchor="middle" x="645.5" y="-369.2" font-family="Helvetica,Arial,sans-serif" font-size="11.00">H4: 0.2%</text>
<text text-anchor="middle" x="645.5" y="-357.2" font-family="Helvetica,Arial,sans-serif" font-size="11.00">H0: 0.2%</text>
<text text-anchor="middle" x="645.5" y="-332.2" font-family="Helvetica,Arial,sans-serif" font-size="11.00">Verdict: STRONGLY SUPPORTED</text>
</g>
<!-- h0&#45;&gt;posterior_summary -->
<g id="edge17" class="edge">
<title>h0&#45;&gt;posterior_summary</title>
<path fill="none" stroke="black" stroke-dasharray="5,2" d="M502.09,-624.23C509.97,-619.87 517.45,-614.83 524,-609 571.2,-567.06 603.19,-502.09 622.28,-452.73"/>
<polygon fill="black" stroke="black" points="625.67,-453.67 625.93,-443.08 619.12,-451.2 625.67,-453.67"/>
</g>
<!-- h1 -->
<g id="node2" class="node">
<title>h1</title>
<path fill="#ccffcc" stroke="black" stroke-width="2.5" d="M494.5,-600C494.5,-600 342.5,-600 342.5,-600 336.5,-600 330.5,-594 330.5,-588 330.5,-588 330.5,-526 330.5,-526 330.5,-520 336.5,-514 342.5,-514 342.5,-514 494.5,-514 494.5,-514 500.5,-514 506.5,-520 506.5,-526 506.5,-526 506.5,-588 506.5,-588 506.5,-594 500.5,-600 494.5,-600"/>
<text text-anchor="middle" x="418.5" y="-588" font-family="Helvetica,Arial,sans-serif" font-size="10.00">H1: [Proposition TRUE] &#45; Net Health</text>
<text text-anchor="middle" x="418.5" y="-577" font-family="Helvetica,Arial,sans-serif" font-size="10.00">Benefit from Coffee’s Bioactive</text>
<text text-anchor="middle" x="418.5" y="-566" font-family="Helvetica,Arial,sans-serif" font-size="10.00">Compounds</text>
<text text-anchor="middle" x="418.5" y="-543" font-family="Helvetica,Arial,sans-serif" font-size="10.00">Prior: 0.15</text>
<text text-anchor="middle" x="418.5" y="-532" font-family="Helvetica,Arial,sans-serif" font-size="10.00">Posterior: 0.204</text>
<text text-anchor="middle" x="418.5" y="-521" font-family="Helvetica,Arial,sans-serif" font-size="10.00">Status: STRONG</text>
</g>
<!-- h1&#45;&gt;posterior_summary -->
<g id="edge18" class="edge">
<title>h1&#45;&gt;posterior_summary</title>
<path fill="none" stroke="black" d="M506.62,-516.43C512.64,-512.79 518.5,-508.97 524,-505 545.86,-489.24 567.39,-469.42 586.06,-450.41"/>
<polygon fill="black" stroke="black" points="588.63,-452.79 593.07,-443.17 583.6,-447.92 588.63,-452.79"/>
</g>
<!-- h2 -->
<g id="node3" class="node">
<title>h2</title>
<path fill="#ff9999" stroke="black" d="M494.5,-391.5C494.5,-391.5 342.5,-391.5 342.5,-391.5 336.5,-391.5 330.5,-385.5 330.5,-379.5 330.5,-379.5 330.5,-328.5 330.5,-328.5 330.5,-322.5 336.5,-316.5 342.5,-316.5 342.5,-316.5 494.5,-316.5 494.5,-316.5 500.5,-316.5 506.5,-322.5 506.5,-328.5 506.5,-328.5 506.5,-379.5 506.5,-379.5 506.5,-385.5 500.5,-391.5 494.5,-391.5"/>
<text text-anchor="middle" x="418.5" y="-379.5" font-family="Helvetica,Arial,sans-serif" font-size="10.00">H2: [Proposition FALSE] &#45; Adverse</text>
<text text-anchor="middle" x="418.5" y="-368.5" font-family="Helvetica,Arial,sans-serif" font-size="10.00">Health Outcomes Outweigh Benefits</text>
<text text-anchor="middle" x="418.5" y="-345.5" font-family="Helvetica,Arial,sans-serif" font-size="10.00">Prior: 0.25</text>
<text text-anchor="middle" x="418.5" y="-334.5" font-family="Helvetica,Arial,sans-serif" font-size="10.00">Posterior: 0.020</text>
<text text-anchor="middle" x="418.5" y="-323.5" font-family="Helvetica,Arial,sans-serif" font-size="10.00">Status: WEAK</text>
</g>
<!-- h2&#45;&gt;posterior_summary -->
<g id="edge19" class="edge">
<title>h2&#45;&gt;posterior_summary</title>
<path fill="none" stroke="black" stroke-dasharray="5,2" d="M506.82,-365.64C518.59,-367.21 530.75,-368.83 542.75,-370.43"/>
<polygon fill="black" stroke="black" points="542.4,-373.92 552.77,-371.77 543.32,-366.98 542.4,-373.92"/>
</g>
<!-- h3 -->
<g id="node4" class="node">
<title>h3</title>
<path fill="#ffff99" stroke="black" stroke-width="3" d="M496,-496C496,-496 341,-496 341,-496 335,-496 329,-490 329,-484 329,-484 329,-422 329,-422 329,-416 335,-410 341,-410 341,-410 496,-410 496,-410 502,-410 508,-416 508,-422 508,-422 508,-484 508,-484 508,-490 502,-496 496,-496"/>
<text text-anchor="middle" x="418.5" y="-484" font-family="Helvetica,Arial,sans-serif" font-size="10.00">H3: [Proposition PARTIAL] &#45; Benefits</text>
<text text-anchor="middle" x="418.5" y="-473" font-family="Helvetica,Arial,sans-serif" font-size="10.00">Are Conditional on Moderation and</text>
<text text-anchor="middle" x="418.5" y="-462" font-family="Helvetica,Arial,sans-serif" font-size="10.00">Individual Differences</text>
<text text-anchor="middle" x="418.5" y="-439" font-family="Helvetica,Arial,sans-serif" font-size="10.00">Prior: 0.30</text>
<text text-anchor="middle" x="418.5" y="-428" font-family="Helvetica,Arial,sans-serif" font-size="10.00">Posterior: 0.772</text>
<text text-anchor="middle" x="418.5" y="-417" font-family="Helvetica,Arial,sans-serif" font-size="10.00">Status: STRONGEST</text>
</g>
<!-- h3&#45;&gt;posterior_summary -->
<g id="edge20" class="edge">
<title>h3&#45;&gt;posterior_summary</title>
<path fill="none" stroke="black" d="M508.11,-425.83C519.54,-422.32 531.32,-418.71 542.94,-415.15"/>
<polygon fill="black" stroke="black" points="544.12,-418.45 552.65,-412.17 542.06,-411.75 544.12,-418.45"/>
</g>
<!-- h4 -->
<g id="node5" class="node">
<title>h4</title>
<path fill="#ccffcc" stroke="black" d="M500,-194C500,-194 337,-194 337,-194 331,-194 325,-188 325,-182 325,-182 325,-120 325,-120 325,-114 331,-108 337,-108 337,-108 500,-108 500,-108 506,-108 512,-114 512,-120 512,-120 512,-182 512,-182 512,-188 506,-194 500,-194"/>
<text text-anchor="middle" x="418.5" y="-182" font-family="Helvetica,Arial,sans-serif" font-size="10.00">H4: [Domain&#45;Specific TRUE] &#45; Cultural</text>
<text text-anchor="middle" x="418.5" y="-171" font-family="Helvetica,Arial,sans-serif" font-size="10.00">and Social Rituals Enhance Holistic</text>
<text text-anchor="middle" x="418.5" y="-160" font-family="Helvetica,Arial,sans-serif" font-size="10.00">Well&#45;Being</text>
<text text-anchor="middle" x="418.5" y="-137" font-family="Helvetica,Arial,sans-serif" font-size="10.00">Prior: 0.10</text>
<text text-anchor="middle" x="418.5" y="-126" font-family="Helvetica,Arial,sans-serif" font-size="10.00">Posterior: 0.002</text>
<text text-anchor="middle" x="418.5" y="-115" font-family="Helvetica,Arial,sans-serif" font-size="10.00">Status: WEAK</text>
</g>
<!-- h4&#45;&gt;posterior_summary -->
<g id="edge21" class="edge">
<title>h4&#45;&gt;posterior_summary</title>
<path fill="none" stroke="black" stroke-dasharray="5,2" d="M512.18,-193.61C516.31,-196.59 520.28,-199.72 524,-203 559.79,-234.55 589.6,-279.05 610.63,-316.04"/>
<polygon fill="black" stroke="black" points="607.58,-317.76 615.51,-324.78 613.69,-314.34 607.58,-317.76"/>
</g>
<!-- h5 -->
<g id="node6" class="node">
<title>h5</title>
<path fill="#ff9999" stroke="black" d="M491,-298C491,-298 346,-298 346,-298 340,-298 334,-292 334,-286 334,-286 334,-224 334,-224 334,-218 340,-212 346,-212 346,-212 491,-212 491,-212 497,-212 503,-218 503,-224 503,-224 503,-286 503,-286 503,-292 497,-298 491,-298"/>
<text text-anchor="middle" x="418.5" y="-286" font-family="Helvetica,Arial,sans-serif" font-size="10.00">H5: [Domain&#45;Specific FALSE] &#45;</text>
<text text-anchor="middle" x="418.5" y="-275" font-family="Helvetica,Arial,sans-serif" font-size="10.00">Biomedical Cautions Limit Coffee’s</text>
<text text-anchor="middle" x="418.5" y="-264" font-family="Helvetica,Arial,sans-serif" font-size="10.00">Health Claims</text>
<text text-anchor="middle" x="418.5" y="-241" font-family="Helvetica,Arial,sans-serif" font-size="10.00">Prior: 0.10</text>
<text text-anchor="middle" x="418.5" y="-230" font-family="Helvetica,Arial,sans-serif" font-size="10.00">Posterior: 0.000</text>
<text text-anchor="middle" x="418.5" y="-219" font-family="Helvetica,Arial,sans-serif" font-size="10.00">Status: WEAK</text>
</g>
<!-- h5&#45;&gt;posterior_summary -->
<g id="edge22" class="edge">
<title>h5&#45;&gt;posterior_summary</title>
<path fill="none" stroke="black" stroke-dasharray="5,2" d="M503.15,-296.55C510.25,-300.34 517.28,-304.19 524,-308 530.66,-311.78 537.46,-315.75 544.29,-319.82"/>
<polygon fill="black" stroke="black" points="542.56,-322.86 552.93,-325.01 546.16,-316.86 542.56,-322.86"/>
</g>
<!-- c1_node -->
<g id="node7" class="node">
<title>c1_node</title>
<ellipse fill="#ffcccc" stroke="black" cx="135.5" cy="-576" rx="118.17" ry="53.07"/>
<text text-anchor="middle" x="135.5" y="-601.5" font-family="Helvetica,Arial,sans-serif" font-size="10.00">Evidence from meta‐analyses,</text>
<text text-anchor="middle" x="135.5" y="-590.5" font-family="Helvetica,Arial,sans-serif" font-size="10.00">randomized trials, and large cohort</text>
<text text-anchor="middle" x="135.5" y="-579.5" font-family="Helvetica,Arial,sans-serif" font-size="10.00">studies largely showing beneficial</text>
<text text-anchor="middle" x="135.5" y="-568.5" font-family="Helvetica,Arial,sans-serif" font-size="10.00">(35 items)</text>
<text text-anchor="middle" x="135.5" y="-545.5" font-family="Helvetica,Arial,sans-serif" font-size="10.00">WoE to H3: 5.6 dB</text>
</g>
<!-- c1_node&#45;&gt;h0 -->
<g id="edge1" class="edge">
<title>c1_node&#45;&gt;h0</title>
<path fill="none" stroke="#cc0000" stroke-width="1.5" stroke-dasharray="1,5" d="M237.95,-602.72C266.36,-610.2 297.08,-618.29 324.94,-625.62"/>
<polygon fill="#cc0000" stroke="#cc0000" stroke-width="1.5" points="324.1,-629.02 334.66,-628.19 325.89,-622.25 324.1,-629.02"/>
<text text-anchor="middle" x="288.5" y="-621.6" font-family="Helvetica,Arial,sans-serif" font-size="8.00">LR: 0.21</text>
</g>
<!-- c1_node&#45;&gt;h2 -->
<g id="edge2" class="edge">
<title>c1_node&#45;&gt;h2</title>
<path fill="none" stroke="#cc0000" stroke-width="1.5" stroke-dasharray="1,5" d="M226.99,-542.3C240.65,-533.86 253.37,-523.53 263,-511 275.75,-494.41 262.18,-482.91 273,-465 282.3,-449.61 294.37,-454.19 304,-439 313.35,-424.25 302.74,-414.35 314,-401 316.58,-397.95 319.39,-395.09 322.39,-392.4"/>
<polygon fill="#cc0000" stroke="#cc0000" stroke-width="1.5" points="324.63,-395.1 330.2,-386.09 320.23,-389.65 324.63,-395.1"/>
<text text-anchor="middle" x="288.5" y="-467.6" font-family="Helvetica,Arial,sans-serif" font-size="8.00">LR: 0.09</text>
</g>
<!-- c1_node&#45;&gt;h3 -->
<g id="edge3" class="edge">
<title>c1_node&#45;&gt;h3</title>
<path fill="none" stroke="#006600" stroke-width="3" d="M247.88,-592.69C268.53,-590.4 288.46,-583.83 304,-570 325.84,-550.57 296.81,-528.64 314,-505 316.07,-502.15 318.34,-499.45 320.78,-496.89"/>
<polygon fill="#006600" stroke="#006600" stroke-width="3" points="323.63,-499.02 328.53,-489.63 318.84,-493.91 323.63,-499.02"/>
<text text-anchor="middle" x="288.5" y="-589.6" font-family="Helvetica,Arial,sans-serif" font-size="8.00">LR: 3.60</text>
</g>
<!-- c1_node&#45;&gt;h4 -->
<g id="edge4" class="edge">
<title>c1_node&#45;&gt;h4</title>
<path fill="none" stroke="#cc0000" stroke-width="1.5" stroke-dasharray="1,5" d="M229.11,-543.37C242.45,-534.82 254.51,-524.18 263,-511 287.82,-472.47 251.41,-345.43 273,-305 281.08,-289.87 295.34,-296.81 304,-282 321.87,-251.45 293.57,-231.9 314,-203 315.18,-201.34 316.42,-199.73 317.73,-198.16"/>
<polygon fill="#cc0000" stroke="#cc0000" stroke-width="1.5" points="320.41,-200.42 324.74,-190.75 315.33,-195.61 320.41,-200.42"/>
<text text-anchor="middle" x="288.5" y="-307.6" font-family="Helvetica,Arial,sans-serif" font-size="8.00">LR: 0.10</text>
</g>
<!-- c1_node&#45;&gt;h5 -->
<g id="edge5" class="edge">
<title>c1_node&#45;&gt;h5</title>
<path fill="none" stroke="#cc0000" stroke-width="1.5" stroke-dasharray="1,5" d="M228.64,-543.06C242.03,-534.55 254.23,-524 263,-511 290.45,-470.3 248.97,-443.81 273,-401 281.4,-386.04 295.22,-392.74 304,-378 320.08,-351 295.75,-333.58 314,-308 317.46,-303.16 321.49,-298.73 325.92,-294.68"/>
<polygon fill="#cc0000" stroke="#cc0000" stroke-width="1.5" points="328.25,-297.29 333.71,-288.22 323.78,-291.9 328.25,-297.29"/>
<text text-anchor="middle" x="288.5" y="-403.6" font-family="Helvetica,Arial,sans-serif" font-size="8.00">LR: 0.10</text>
</g>
<!-- c2_node -->
<g id="node8" class="node">
<title>c2_node</title>
<ellipse fill="#ffffcc" stroke="black" cx="135.5" cy="-416" rx="119.5" ry="53.07"/>
<text text-anchor="middle" x="135.5" y="-441.5" font-family="Helvetica,Arial,sans-serif" font-size="10.00">Evidence indicating possible</text>
<text text-anchor="middle" x="135.5" y="-430.5" font-family="Helvetica,Arial,sans-serif" font-size="10.00">increased risks, adverse events, or</text>
<text text-anchor="middle" x="135.5" y="-419.5" font-family="Helvetica,Arial,sans-serif" font-size="10.00">null associations that suggest</text>
<text text-anchor="middle" x="135.5" y="-408.5" font-family="Helvetica,Arial,sans-serif" font-size="10.00">(13 items)</text>
<text text-anchor="middle" x="135.5" y="-385.5" font-family="Helvetica,Arial,sans-serif" font-size="10.00">WoE to H2: 8.5 dB</text>
</g>
<!-- c2_node&#45;&gt;h0 -->
<g id="edge6" class="edge">
<title>c2_node&#45;&gt;h0</title>
<path fill="none" stroke="#cc0000" stroke-width="1.5" stroke-dasharray="1,5" d="M207.79,-458.55C227.76,-473.17 248.06,-490.96 263,-511 270.65,-521.26 265.32,-527.76 273,-538 283.3,-551.72 294.76,-546.55 304,-561 315.74,-579.36 299.97,-592.33 314,-609 317.66,-613.34 321.84,-617.23 326.37,-620.71"/>
<polygon fill="#cc0000" stroke="#cc0000" stroke-width="1.5" points="324.65,-623.77 334.88,-626.54 328.61,-618 324.65,-623.77"/>
<text text-anchor="middle" x="288.5" y="-563.6" font-family="Helvetica,Arial,sans-serif" font-size="8.00">LR: 0.29</text>
</g>
<!-- c2_node&#45;&gt;h1 -->
<g id="edge7" class="edge">
<title>c2_node&#45;&gt;h1</title>
<path fill="none" stroke="#cc0000" stroke-width="1.5" stroke-dasharray="1,5" d="M221.98,-452.8C248.91,-465.58 278.32,-480.8 304,-497 308.82,-500.04 309.21,-501.93 314,-505 316.46,-506.58 318.98,-508.14 321.53,-509.69"/>
<polygon fill="#cc0000" stroke="#cc0000" stroke-width="1.5" points="319.96,-512.83 330.35,-514.9 323.52,-506.8 319.96,-512.83"/>
<text text-anchor="middle" x="288.5" y="-499.6" font-family="Helvetica,Arial,sans-serif" font-size="8.00">LR: 0.28</text>
</g>
<!-- c2_node&#45;&gt;h2 -->
<g id="edge8" class="edge">
<title>c2_node&#45;&gt;h2</title>
<path fill="none" stroke="#006600" stroke-width="3" d="M226.72,-381.71C242,-376.84 257.83,-372.35 273,-369 288.05,-365.67 304.15,-363.08 319.94,-361.06"/>
<polygon fill="#006600" stroke="#006600" stroke-width="3" points="320.75,-364.49 330.26,-359.81 319.91,-357.54 320.75,-364.49"/>
<text text-anchor="middle" x="288.5" y="-371.6" font-family="Helvetica,Arial,sans-serif" font-size="8.00">LR: 7.11</text>
</g>
<!-- c2_node&#45;&gt;h4 -->
<g id="edge9" class="edge">
<title>c2_node&#45;&gt;h4</title>
<path fill="none" stroke="#cc0000" stroke-width="1.5" stroke-dasharray="1,5" d="M229.07,-382.94C242.32,-374.45 254.37,-363.94 263,-351 278.34,-328 258.3,-250.41 273,-227 283.47,-210.34 298.88,-197.13 315.78,-186.72"/>
<polygon fill="#cc0000" stroke="#cc0000" stroke-width="1.5" points="317.84,-189.57 324.74,-181.53 314.33,-183.51 317.84,-189.57"/>
<text text-anchor="middle" x="288.5" y="-229.6" font-family="Helvetica,Arial,sans-serif" font-size="8.00">LR: 0.14</text>
</g>
<!-- c2_node&#45;&gt;h5 -->
<g id="edge10" class="edge">
<title>c2_node&#45;&gt;h5</title>
<path fill="none" stroke="#cc0000" stroke-width="1.5" stroke-dasharray="1,5" d="M228.55,-382.58C241.87,-374.14 254.07,-363.73 263,-351 283.08,-322.39 248.24,-297.67 273,-273 286.65,-259.4 304.98,-252.3 323.99,-249.04"/>
<polygon fill="#cc0000" stroke="#cc0000" stroke-width="1.5" points="324.55,-252.5 333.98,-247.67 323.59,-245.56 324.55,-252.5"/>
<text text-anchor="middle" x="288.5" y="-275.6" font-family="Helvetica,Arial,sans-serif" font-size="8.00">LR: 0.14</text>
</g>
<!-- c3_node -->
<g id="node9" class="node">
<title>c3_node</title>
<ellipse fill="#ffe6cc" stroke="black" cx="135.5" cy="-256" rx="115.93" ry="53.07"/>
<text text-anchor="middle" x="135.5" y="-281.5" font-family="Helvetica,Arial,sans-serif" font-size="10.00">Evidence examining the impact of</text>
<text text-anchor="middle" x="135.5" y="-270.5" font-family="Helvetica,Arial,sans-serif" font-size="10.00">coffee on neurological outcomes,</text>
<text text-anchor="middle" x="135.5" y="-259.5" font-family="Helvetica,Arial,sans-serif" font-size="10.00">cognitive disorders, and</text>
<text text-anchor="middle" x="135.5" y="-248.5" font-family="Helvetica,Arial,sans-serif" font-size="10.00">(4 items)</text>
<text text-anchor="middle" x="135.5" y="-225.5" font-family="Helvetica,Arial,sans-serif" font-size="10.00">WoE to H3: 5.3 dB</text>
</g>
<!-- c3_node&#45;&gt;h0 -->
<g id="edge11" class="edge">
<title>c3_node&#45;&gt;h0</title>
<path fill="none" stroke="#cc0000" stroke-width="1.5" stroke-dasharray="1,5" d="M211.6,-296.12C231.7,-310.65 251.12,-329.01 263,-351 279.41,-381.36 256.5,-475.68 273,-506 281.2,-521.07 295.35,-514.18 304,-529 322.07,-559.94 292.06,-580.67 314,-609 317.64,-613.7 321.9,-617.86 326.58,-621.55"/>
<polygon fill="#cc0000" stroke="#cc0000" stroke-width="1.5" points="324.61,-624.44 334.8,-627.31 328.62,-618.71 324.61,-624.44"/>
<text text-anchor="middle" x="288.5" y="-531.6" font-family="Helvetica,Arial,sans-serif" font-size="8.00">LR: 0.23</text>
</g>
<!-- c3_node&#45;&gt;h2 -->
<g id="edge12" class="edge">
<title>c3_node&#45;&gt;h2</title>
<path fill="none" stroke="#cc0000" stroke-width="1.5" stroke-dasharray="1,5" d="M218.83,-293.04C236.53,-300.43 255.26,-307.8 273,-314 288.16,-319.29 304.41,-324.36 320.34,-329"/>
<polygon fill="#cc0000" stroke="#cc0000" stroke-width="1.5" points="319.62,-332.44 330.2,-331.83 321.56,-325.71 319.62,-332.44"/>
<text text-anchor="middle" x="288.5" y="-324.6" font-family="Helvetica,Arial,sans-serif" font-size="8.00">LR: 0.20</text>
</g>
<!-- c3_node&#45;&gt;h3 -->
<g id="edge13" class="edge">
<title>c3_node&#45;&gt;h3</title>
<path fill="none" stroke="#006600" stroke-width="3" d="M210.2,-296.92C230.25,-311.48 250,-329.66 263,-351 276.84,-373.71 255.37,-390.09 273,-410 280.26,-418.2 298.22,-425.63 319.1,-431.93"/>
<polygon fill="#006600" stroke="#006600" stroke-width="3" points="318.29,-435.34 328.87,-434.73 320.23,-428.61 318.29,-435.34"/>
<text text-anchor="middle" x="288.5" y="-428.6" font-family="Helvetica,Arial,sans-serif" font-size="8.00">LR: 3.39</text>
</g>
<!-- c3_node&#45;&gt;h4 -->
<g id="edge14" class="edge">
<title>c3_node&#45;&gt;h4</title>
<path fill="none" stroke="#cc0000" stroke-width="1.5" stroke-dasharray="1,5" d="M221.36,-220.04C236.11,-211.72 250.66,-202.02 263,-191 268.98,-185.66 266.29,-180.37 273,-176 285.6,-167.8 300.08,-162.05 314.9,-158.06"/>
<polygon fill="#cc0000" stroke="#cc0000" stroke-width="1.5" points="315.78,-161.45 324.67,-155.68 314.13,-154.64 315.78,-161.45"/>
<text text-anchor="middle" x="288.5" y="-178.6" font-family="Helvetica,Arial,sans-serif" font-size="8.00">LR: 0.11</text>
</g>
<!-- c3_node&#45;&gt;h5 -->
<g id="edge15" class="edge">
<title>c3_node&#45;&gt;h5</title>
<path fill="none" stroke="#cc0000" stroke-width="1.5" stroke-dasharray="1,5" d="M247.26,-241.35C266.18,-240.21 285.64,-239.87 304,-241 310.37,-241.39 316.94,-241.91 323.54,-242.51"/>
<polygon fill="#cc0000" stroke="#cc0000" stroke-width="1.5" points="323.64,-246.03 333.93,-243.51 324.32,-239.06 323.64,-246.03"/>
<text text-anchor="middle" x="288.5" y="-243.6" font-family="Helvetica,Arial,sans-serif" font-size="8.00">LR: 0.11</text>
</g>
<!-- c4_node -->
<g id="node10" class="node">
<title>c4_node</title>
<ellipse fill="#cce6ff" stroke="black" cx="135.5" cy="-77" rx="113.27" ry="60.62"/>
<text text-anchor="middle" x="135.5" y="-108" font-family="Helvetica,Arial,sans-serif" font-size="10.00">Qualitative and contextual</text>
<text text-anchor="middle" x="135.5" y="-97" font-family="Helvetica,Arial,sans-serif" font-size="10.00">evidence highlighting</text>
<text text-anchor="middle" x="135.5" y="-86" font-family="Helvetica,Arial,sans-serif" font-size="10.00">non‐biomedical aspects of coffee</text>
<text text-anchor="middle" x="135.5" y="-75" font-family="Helvetica,Arial,sans-serif" font-size="10.00">consumption, such</text>
<text text-anchor="middle" x="135.5" y="-64" font-family="Helvetica,Arial,sans-serif" font-size="10.00">(5 items)</text>
<text text-anchor="middle" x="135.5" y="-41" font-family="Helvetica,Arial,sans-serif" font-size="10.00">WoE to H4: 9.5 dB</text>
</g>
<!-- c4_node&#45;&gt;h4 -->
<g id="edge16" class="edge">
<title>c4_node&#45;&gt;h4</title>
<path fill="none" stroke="#006600" stroke-width="3" d="M237.55,-103.61C262.69,-110.23 289.67,-117.34 314.89,-123.98"/>
<polygon fill="#006600" stroke="#006600" stroke-width="3" points="314.26,-127.43 324.83,-126.59 316.05,-120.66 314.26,-127.43"/>
<text text-anchor="middle" x="288.5" y="-122.6" font-family="Helvetica,Arial,sans-serif" font-size="8.00">LR: 9.00</text>
</g>
<!-- paradigm_k0 -->
<g id="node12" class="node">
<title>paradigm_k0</title>
<ellipse fill="#e6ccff" stroke="black" cx="854.2" cy="-504" rx="75.82" ry="21.43"/>
<text text-anchor="middle" x="854.2" y="-507" font-family="Helvetica,Arial,sans-serif" font-size="10.00">K0: Empirical Conse</text>
<text text-anchor="middle" x="854.2" y="-496" font-family="Helvetica,Arial,sans-serif" font-size="10.00">H3: 77.2%</text>
</g>
<!-- posterior_summary&#45;&gt;paradigm_k0 -->
<g id="edge23" class="edge">
<title>posterior_summary&#45;&gt;paradigm_k0</title>
<path fill="none" stroke="black" d="M718.36,-443.21C733.84,-454.36 750.51,-465.24 767,-474 774.73,-478.1 783.13,-481.83 791.56,-485.16"/>
<polygon fill="black" stroke="black" points="790.46,-488.48 801.06,-488.74 792.93,-481.94 790.46,-488.48"/>
</g>
<!-- paradigm_k0_inv -->
<g id="node13" class="node">
<title>paradigm_k0_inv</title>
<ellipse fill="#e6ccff" stroke="black" cx="854.2" cy="-444" rx="77.56" ry="21.43"/>
<text text-anchor="middle" x="854.2" y="-447" font-family="Helvetica,Arial,sans-serif" font-size="10.00">K0&#45;inv: Holistic Tradit</text>
<text text-anchor="middle" x="854.2" y="-436" font-family="Helvetica,Arial,sans-serif" font-size="10.00">H3: 64.8%</text>
</g>
<!-- posterior_summary&#45;&gt;paradigm_k0_inv -->
<g id="edge24" class="edge">
<title>posterior_summary&#45;&gt;paradigm_k0_inv</title>
<path fill="none" stroke="black" stroke-dasharray="5,2" d="M738.06,-410.58C755.68,-415.69 773.76,-420.94 790.22,-425.72"/>
<polygon fill="black" stroke="black" points="789.66,-429.2 800.24,-428.63 791.61,-422.48 789.66,-429.2"/>
</g>
<!-- paradigm_k1 -->
<g id="node14" class="node">
<title>paradigm_k1</title>
<ellipse fill="#e6ccff" stroke="black" cx="854.2" cy="-384" rx="79.39" ry="21.43"/>
<text text-anchor="middle" x="854.2" y="-387" font-family="Helvetica,Arial,sans-serif" font-size="10.00">K1: Economic Produc</text>
<text text-anchor="middle" x="854.2" y="-376" font-family="Helvetica,Arial,sans-serif" font-size="10.00">H3: 71.4%</text>
</g>
<!-- posterior_summary&#45;&gt;paradigm_k1 -->
<g id="edge25" class="edge">
<title>posterior_summary&#45;&gt;paradigm_k1</title>
<path fill="none" stroke="black" stroke-dasharray="5,2" d="M738.06,-384C746.91,-384 755.88,-384 764.69,-384"/>
<polygon fill="black" stroke="black" points="764.96,-387.5 774.96,-384 764.96,-380.5 764.96,-387.5"/>
</g>
<!-- paradigm_k2 -->
<g id="node15" class="node">
<title>paradigm_k2</title>
<ellipse fill="#e6ccff" stroke="black" cx="854.2" cy="-324" rx="69.09" ry="21.43"/>
<text text-anchor="middle" x="854.2" y="-327" font-family="Helvetica,Arial,sans-serif" font-size="10.00">K2: Cultural Narrat</text>
<text text-anchor="middle" x="854.2" y="-316" font-family="Helvetica,Arial,sans-serif" font-size="10.00">H3: 66.9%</text>
</g>
<!-- posterior_summary&#45;&gt;paradigm_k2 -->
<g id="edge26" class="edge">
<title>posterior_summary&#45;&gt;paradigm_k2</title>
<path fill="none" stroke="black" stroke-dasharray="5,2" d="M738.06,-357.42C756.84,-351.97 776.14,-346.37 793.45,-341.34"/>
<polygon fill="black" stroke="black" points="794.76,-344.61 803.39,-338.46 792.81,-337.89 794.76,-344.61"/>
</g>
<!-- paradigm_k3 -->
<g id="node16" class="node">
<title>paradigm_k3</title>
<ellipse fill="#e6ccff" stroke="black" cx="854.2" cy="-264" rx="74.49" ry="21.43"/>
<text text-anchor="middle" x="854.2" y="-267" font-family="Helvetica,Arial,sans-serif" font-size="10.00">K3: Biomedical Evid</text>
<text text-anchor="middle" x="854.2" y="-256" font-family="Helvetica,Arial,sans-serif" font-size="10.00">H3: 52.0%</text>
</g>
<!-- posterior_summary&#45;&gt;paradigm_k3 -->
<g id="edge27" class="edge">
<title>posterior_summary&#45;&gt;paradigm_k3</title>
<path fill="none" stroke="black" stroke-dasharray="5,2" d="M718.36,-324.79C733.84,-313.64 750.51,-302.76 767,-294 774.83,-289.84 783.35,-286.07 791.9,-282.71"/>
<polygon fill="black" stroke="black" points="793.38,-285.89 801.51,-279.1 790.92,-279.34 793.38,-285.89"/>
</g>
<!-- bayesian_synthesis -->
<g id="node18" class="node">
<title>bayesian_synthesis</title>
<path fill="#e6f3ff" stroke="black" stroke-width="1.5" d="M1099.39,-427.5C1099.39,-427.5 982.39,-427.5 982.39,-427.5 976.39,-427.5 970.39,-421.5 970.39,-415.5 970.39,-415.5 970.39,-352.5 970.39,-352.5 970.39,-346.5 976.39,-340.5 982.39,-340.5 982.39,-340.5 1099.39,-340.5 1099.39,-340.5 1105.39,-340.5 1111.39,-346.5 1111.39,-352.5 1111.39,-352.5 1111.39,-415.5 1111.39,-415.5 1111.39,-421.5 1105.39,-427.5 1099.39,-427.5"/>
<text text-anchor="middle" x="1040.89" y="-415.5" font-family="Helvetica,Arial,sans-serif" font-size="10.00">BAYESIAN SYNTHESIS</text>
<text text-anchor="middle" x="1040.89" y="-392.5" font-family="Helvetica,Arial,sans-serif" font-size="10.00">H3: 30% → 77.2% (+47.2%)</text>
<text text-anchor="middle" x="1040.89" y="-381.5" font-family="Helvetica,Arial,sans-serif" font-size="10.00">H1: 15% → 20.4% (+5.4%)</text>
<text text-anchor="middle" x="1040.89" y="-370.5" font-family="Helvetica,Arial,sans-serif" font-size="10.00">H2: 25% → 2.0% (&#45;23.0%)</text>
<text text-anchor="middle" x="1040.89" y="-347.5" font-family="Helvetica,Arial,sans-serif" font-size="10.00">Total WoE: 152.0 dB</text>
</g>
<!-- paradigm_k0&#45;&gt;bayesian_synthesis -->
<g id="edge28" class="edge">
<title>paradigm_k0&#45;&gt;bayesian_synthesis</title>
<path fill="none" stroke="#666666" stroke-dasharray="5,2" d="M908.68,-489.18C919.87,-485.04 931.32,-480 941.39,-474 959.52,-463.19 977.22,-448.68 992.5,-434.47"/>
<polygon fill="#666666" stroke="#666666" points="994.96,-436.96 999.79,-427.54 990.13,-431.89 994.96,-436.96"/>
</g>
<!-- paradigm_k0_inv&#45;&gt;bayesian_synthesis -->
<g id="edge29" class="edge">
<title>paradigm_k0_inv&#45;&gt;bayesian_synthesis</title>
<path fill="none" stroke="#666666" stroke-dasharray="5,2" d="M905.18,-427.76C922.19,-422.24 941.65,-415.91 960.39,-409.83"/>
<polygon fill="#666666" stroke="#666666" points="961.68,-413.09 970.11,-406.67 959.52,-406.43 961.68,-413.09"/>
</g>
<!-- paradigm_k1&#45;&gt;bayesian_synthesis -->
<g id="edge30" class="edge">
<title>paradigm_k1&#45;&gt;bayesian_synthesis</title>
<path fill="none" stroke="#666666" stroke-dasharray="5,2" d="M933.53,-384C942.29,-384 951.22,-384 960.01,-384"/>
<polygon fill="#666666" stroke="#666666" points="960.22,-387.5 970.22,-384 960.22,-380.5 960.22,-387.5"/>
</g>
<!-- paradigm_k2&#45;&gt;bayesian_synthesis -->
<g id="edge31" class="edge">
<title>paradigm_k2&#45;&gt;bayesian_synthesis</title>
<path fill="none" stroke="#666666" stroke-dasharray="5,2" d="M902.28,-339.3C920.01,-345.05 940.69,-351.77 960.55,-358.23"/>
<polygon fill="#666666" stroke="#666666" points="959.63,-361.61 970.22,-361.37 961.79,-354.95 959.63,-361.61"/>
</g>
<!-- paradigm_k3&#45;&gt;bayesian_synthesis -->
<g id="edge32" class="edge">
<title>paradigm_k3&#45;&gt;bayesian_synthesis</title>
<path fill="none" stroke="#666666" stroke-dasharray="5,2" d="M908.23,-278.66C919.56,-282.82 931.19,-287.91 941.39,-294 959.52,-304.81 977.22,-319.32 992.5,-333.53"/>
<polygon fill="#666666" stroke="#666666" points="990.13,-336.11 999.79,-340.46 994.96,-331.04 990.13,-336.11"/>
</g>
<!-- evidence_assessment -->
<g id="node17" class="node">
<title>evidence_assessment</title>
<path fill="#e6ffe6" stroke="black" stroke-width="1.5" d="M186,-773C186,-773 85,-773 85,-773 79,-773 73,-767 73,-761 73,-761 73,-687 73,-687 73,-681 79,-675 85,-675 85,-675 186,-675 186,-675 192,-675 198,-681 198,-687 198,-687 198,-761 198,-761 198,-767 192,-773 186,-773"/>
<text text-anchor="middle" x="135.5" y="-761" font-family="Helvetica,Arial,sans-serif" font-size="10.00">Evidence Assessment</text>
<text text-anchor="middle" x="135.5" y="-738" font-family="Helvetica,Arial,sans-serif" font-size="10.00">Total Evidence Items: 72</text>
<text text-anchor="middle" x="135.5" y="-727" font-family="Helvetica,Arial,sans-serif" font-size="10.00">Evidence Clusters: 4</text>
<text text-anchor="middle" x="135.5" y="-716" font-family="Helvetica,Arial,sans-serif" font-size="10.00">Paradigms Analyzed: 5</text>
<text text-anchor="middle" x="135.5" y="-705" font-family="Helvetica,Arial,sans-serif" font-size="10.00">Avg Items/Cluster: 18.0</text>
<text text-anchor="middle" x="135.5" y="-682" font-family="Helvetica,Arial,sans-serif" font-size="10.00">Coverage: Extensive</text>
</g>
<!-- key_insights -->
<g id="node19" class="node">
<title>key_insights</title>
<path fill="#fff0f5" stroke="black" stroke-width="1.5" d="M1331.39,-421.5C1331.39,-421.5 1160.39,-421.5 1160.39,-421.5 1154.39,-421.5 1148.39,-415.5 1148.39,-409.5 1148.39,-409.5 1148.39,-358.5 1148.39,-358.5 1148.39,-352.5 1154.39,-346.5 1160.39,-346.5 1160.39,-346.5 1331.39,-346.5 1331.39,-346.5 1337.39,-346.5 1343.39,-352.5 1343.39,-358.5 1343.39,-358.5 1343.39,-409.5 1343.39,-409.5 1343.39,-415.5 1337.39,-421.5 1331.39,-421.5"/>
<text text-anchor="middle" x="1245.89" y="-409.5" font-family="Helvetica,Arial,sans-serif" font-size="10.00">KEY INSIGHTS</text>
<text text-anchor="middle" x="1245.89" y="-386.5" font-family="Helvetica,Arial,sans-serif" font-size="10.00">• All 5 paradigms agree on H3</text>
<text text-anchor="middle" x="1245.89" y="-375.5" font-family="Helvetica,Arial,sans-serif" font-size="10.00">• 4 strong support signals</text>
<text text-anchor="middle" x="1245.89" y="-364.5" font-family="Helvetica,Arial,sans-serif" font-size="10.00">• 12 strong refutation signals</text>
<text text-anchor="middle" x="1245.89" y="-353.5" font-family="Helvetica,Arial,sans-serif" font-size="10.00">• Decisive margin (57%) over alternatives</text>
</g>
<!-- bayesian_synthesis&#45;&gt;key_insights -->
<g id="edge33" class="edge">
<title>bayesian_synthesis&#45;&gt;key_insights</title>
<path fill="none" stroke="black" d="M1111.47,-384C1120.06,-384 1128.99,-384 1137.97,-384"/>
<polygon fill="black" stroke="black" points="1138.13,-387.5 1148.13,-384 1138.13,-380.5 1138.13,-387.5"/>
</g>
<!-- final_summary -->
<g id="node20" class="node">
<title>final_summary</title>
<path fill="#ffe4b5" stroke="black" stroke-width="3" d="M1550.39,-467.5C1550.39,-467.5 1392.39,-467.5 1392.39,-467.5 1386.39,-467.5 1380.39,-461.5 1380.39,-455.5 1380.39,-455.5 1380.39,-312.5 1380.39,-312.5 1380.39,-306.5 1386.39,-300.5 1392.39,-300.5 1392.39,-300.5 1550.39,-300.5 1550.39,-300.5 1556.39,-300.5 1562.39,-306.5 1562.39,-312.5 1562.39,-312.5 1562.39,-455.5 1562.39,-455.5 1562.39,-461.5 1556.39,-467.5 1550.39,-467.5"/>
<text text-anchor="middle" x="1471.39" y="-454.7" font-family="Helvetica,Arial,sans-serif" font-size="11.00">ANALYSIS CONCLUSION</text>
<text text-anchor="middle" x="1471.39" y="-429.7" font-family="Helvetica,Arial,sans-serif" font-size="11.00">Leading Hypothesis: H3</text>
<text text-anchor="middle" x="1471.39" y="-417.7" font-family="Helvetica,Arial,sans-serif" font-size="11.00">([Proposition PARTIAL] &#45;</text>
<text text-anchor="middle" x="1471.39" y="-405.7" font-family="Helvetica,Arial,sans-serif" font-size="11.00">Benefits Are Conditional on</text>
<text text-anchor="middle" x="1471.39" y="-393.7" font-family="Helvetica,Arial,sans-serif" font-size="11.00">Moderation and Individual</text>
<text text-anchor="middle" x="1471.39" y="-381.7" font-family="Helvetica,Arial,sans-serif" font-size="11.00">Differences)</text>
<text text-anchor="middle" x="1471.39" y="-356.7" font-family="Helvetica,Arial,sans-serif" font-size="11.00">Posterior: 77.2%</text>
<text text-anchor="middle" x="1471.39" y="-344.7" font-family="Helvetica,Arial,sans-serif" font-size="11.00">Margin over #2: 56.8%</text>
<text text-anchor="middle" x="1471.39" y="-332.7" font-family="Helvetica,Arial,sans-serif" font-size="11.00">Confidence: High</text>
<text text-anchor="middle" x="1471.39" y="-307.7" font-family="Helvetica,Arial,sans-serif" font-size="11.00">Status: STRONGLY SUPPORTED</text>
</g>
<!-- key_insights&#45;&gt;final_summary -->
<g id="edge34" class="edge">
<title>key_insights&#45;&gt;final_summary</title>
<path fill="none" stroke="black" stroke-width="2" d="M1343.62,-384C1352.36,-384 1361.22,-384 1369.98,-384"/>
<polygon fill="black" stroke="black" stroke-width="2" points="1370.21,-387.5 1380.21,-384 1370.21,-380.5 1370.21,-387.5"/>
</g>
</g>
</svg>
